<mxfile host="app.diagrams.net" modified="2023-04-14T01:46:18.570Z" agent="Mozilla/5.0 (Windows NT 10.0; Win64; x64; rv:109.0) Gecko/20100101 Firefox/111.0" etag="SEqhIL77rXRFDe_He-JX" version="21.1.7" type="device">
  <diagram name="Página-1" id="LfcxKcsFjkbq40zHmDso">
    <mxGraphModel dx="794" dy="414" grid="1" gridSize="10" guides="1" tooltips="1" connect="1" arrows="1" fold="1" page="1" pageScale="1" pageWidth="827" pageHeight="1169" math="0" shadow="0">
      <root>
        <mxCell id="0" />
        <mxCell id="1" parent="0" />
        <mxCell id="KPLfDySyqxJ-SgguWjqe-1" value="EXERCÍCIO 3" style="text;html=1;strokeColor=none;fillColor=none;align=center;verticalAlign=middle;whiteSpace=wrap;rounded=0;" vertex="1" parent="1">
          <mxGeometry x="30" y="30" width="110" height="30" as="geometry" />
        </mxCell>
        <mxCell id="KPLfDySyqxJ-SgguWjqe-4" value="Projeto" style="shape=ext;margin=3;double=1;whiteSpace=wrap;html=1;align=center;" vertex="1" parent="1">
          <mxGeometry x="605" y="200" width="100" height="40" as="geometry" />
        </mxCell>
        <mxCell id="KPLfDySyqxJ-SgguWjqe-5" value="Pesquisador" style="whiteSpace=wrap;html=1;align=center;" vertex="1" parent="1">
          <mxGeometry x="430" y="350" width="100" height="40" as="geometry" />
        </mxCell>
        <mxCell id="KPLfDySyqxJ-SgguWjqe-6" value="Secretário" style="whiteSpace=wrap;html=1;align=center;" vertex="1" parent="1">
          <mxGeometry x="40" y="70" width="100" height="40" as="geometry" />
        </mxCell>
        <mxCell id="KPLfDySyqxJ-SgguWjqe-7" value="Limpeza" style="whiteSpace=wrap;html=1;align=center;" vertex="1" parent="1">
          <mxGeometry x="475" y="70" width="100" height="40" as="geometry" />
        </mxCell>
        <mxCell id="KPLfDySyqxJ-SgguWjqe-8" value="Emprega" style="shape=rhombus;perimeter=rhombusPerimeter;whiteSpace=wrap;html=1;align=center;" vertex="1" parent="1">
          <mxGeometry x="240" y="65" width="90" height="50" as="geometry" />
        </mxCell>
        <mxCell id="KPLfDySyqxJ-SgguWjqe-9" value="Trabalha" style="shape=rhombus;perimeter=rhombusPerimeter;whiteSpace=wrap;html=1;align=center;" vertex="1" parent="1">
          <mxGeometry x="610" y="345" width="90" height="50" as="geometry" />
        </mxCell>
        <mxCell id="KPLfDySyqxJ-SgguWjqe-11" value="" style="endArrow=none;html=1;rounded=0;exitX=1;exitY=0.5;exitDx=0;exitDy=0;entryX=0;entryY=0.5;entryDx=0;entryDy=0;" edge="1" parent="1" source="KPLfDySyqxJ-SgguWjqe-6" target="KPLfDySyqxJ-SgguWjqe-8">
          <mxGeometry relative="1" as="geometry">
            <mxPoint x="330" y="220" as="sourcePoint" />
            <mxPoint x="260" y="90" as="targetPoint" />
          </mxGeometry>
        </mxCell>
        <mxCell id="KPLfDySyqxJ-SgguWjqe-12" value="" style="endArrow=none;html=1;rounded=0;entryX=0;entryY=0.5;entryDx=0;entryDy=0;exitX=1;exitY=0.5;exitDx=0;exitDy=0;" edge="1" parent="1" source="KPLfDySyqxJ-SgguWjqe-8" target="KPLfDySyqxJ-SgguWjqe-7">
          <mxGeometry relative="1" as="geometry">
            <mxPoint x="410" y="90" as="sourcePoint" />
            <mxPoint x="490" y="220" as="targetPoint" />
          </mxGeometry>
        </mxCell>
        <mxCell id="KPLfDySyqxJ-SgguWjqe-13" value="" style="endArrow=none;html=1;rounded=0;entryX=0.5;entryY=1;entryDx=0;entryDy=0;exitX=0.5;exitY=0;exitDx=0;exitDy=0;" edge="1" parent="1" source="KPLfDySyqxJ-SgguWjqe-36" target="KPLfDySyqxJ-SgguWjqe-8">
          <mxGeometry relative="1" as="geometry">
            <mxPoint x="365" y="210" as="sourcePoint" />
            <mxPoint x="365" y="111.99000000000001" as="targetPoint" />
          </mxGeometry>
        </mxCell>
        <mxCell id="KPLfDySyqxJ-SgguWjqe-14" value="" style="endArrow=none;html=1;rounded=0;exitX=0.5;exitY=1;exitDx=0;exitDy=0;entryX=0.5;entryY=0;entryDx=0;entryDy=0;" edge="1" parent="1" source="KPLfDySyqxJ-SgguWjqe-36" target="KPLfDySyqxJ-SgguWjqe-32">
          <mxGeometry relative="1" as="geometry">
            <mxPoint x="365" y="250" as="sourcePoint" />
            <mxPoint x="480" y="230" as="targetPoint" />
          </mxGeometry>
        </mxCell>
        <mxCell id="KPLfDySyqxJ-SgguWjqe-15" value="" style="endArrow=none;html=1;rounded=0;exitX=0.5;exitY=1;exitDx=0;exitDy=0;entryX=0.5;entryY=0;entryDx=0;entryDy=0;" edge="1" parent="1" source="KPLfDySyqxJ-SgguWjqe-4" target="KPLfDySyqxJ-SgguWjqe-9">
          <mxGeometry relative="1" as="geometry">
            <mxPoint x="330" y="220" as="sourcePoint" />
            <mxPoint x="490" y="220" as="targetPoint" />
          </mxGeometry>
        </mxCell>
        <mxCell id="KPLfDySyqxJ-SgguWjqe-16" value="" style="endArrow=none;html=1;rounded=0;exitX=0;exitY=0.5;exitDx=0;exitDy=0;entryX=1;entryY=0.5;entryDx=0;entryDy=0;" edge="1" parent="1" source="KPLfDySyqxJ-SgguWjqe-9" target="KPLfDySyqxJ-SgguWjqe-5">
          <mxGeometry relative="1" as="geometry">
            <mxPoint x="330" y="320" as="sourcePoint" />
            <mxPoint x="490" y="320" as="targetPoint" />
          </mxGeometry>
        </mxCell>
        <mxCell id="KPLfDySyqxJ-SgguWjqe-25" value="(1,1)" style="text;html=1;strokeColor=none;fillColor=none;align=center;verticalAlign=middle;whiteSpace=wrap;rounded=0;" vertex="1" parent="1">
          <mxGeometry x="160" y="100" width="60" height="30" as="geometry" />
        </mxCell>
        <mxCell id="KPLfDySyqxJ-SgguWjqe-28" value="(1,1)" style="text;html=1;strokeColor=none;fillColor=none;align=center;verticalAlign=middle;whiteSpace=wrap;rounded=0;" vertex="1" parent="1">
          <mxGeometry x="420" y="90" width="60" height="30" as="geometry" />
        </mxCell>
        <mxCell id="KPLfDySyqxJ-SgguWjqe-31" value="EXERCÍCIO 5" style="text;html=1;strokeColor=none;fillColor=none;align=center;verticalAlign=middle;whiteSpace=wrap;rounded=0;" vertex="1" parent="1">
          <mxGeometry x="50" y="640" width="110" height="30" as="geometry" />
        </mxCell>
        <mxCell id="KPLfDySyqxJ-SgguWjqe-32" value="Emprega" style="shape=rhombus;perimeter=rhombusPerimeter;whiteSpace=wrap;html=1;align=center;" vertex="1" parent="1">
          <mxGeometry x="240" y="345" width="90" height="50" as="geometry" />
        </mxCell>
        <mxCell id="KPLfDySyqxJ-SgguWjqe-35" value="" style="endArrow=none;html=1;rounded=0;exitX=0;exitY=0.5;exitDx=0;exitDy=0;entryX=1;entryY=0.5;entryDx=0;entryDy=0;" edge="1" parent="1" source="KPLfDySyqxJ-SgguWjqe-5" target="KPLfDySyqxJ-SgguWjqe-32">
          <mxGeometry relative="1" as="geometry">
            <mxPoint x="645" y="405" as="sourcePoint" />
            <mxPoint x="610" y="370" as="targetPoint" />
          </mxGeometry>
        </mxCell>
        <mxCell id="KPLfDySyqxJ-SgguWjqe-40" value="Dependentes" style="shape=ext;margin=3;double=1;whiteSpace=wrap;html=1;align=center;" vertex="1" parent="1">
          <mxGeometry x="430" y="565" width="100" height="40" as="geometry" />
        </mxCell>
        <mxCell id="KPLfDySyqxJ-SgguWjqe-41" value="(1,n)" style="text;html=1;strokeColor=none;fillColor=none;align=center;verticalAlign=middle;whiteSpace=wrap;rounded=0;" vertex="1" parent="1">
          <mxGeometry x="280" y="275" width="60" height="30" as="geometry" />
        </mxCell>
        <mxCell id="KPLfDySyqxJ-SgguWjqe-42" value="(1,1)" style="text;html=1;strokeColor=none;fillColor=none;align=center;verticalAlign=middle;whiteSpace=wrap;rounded=0;" vertex="1" parent="1">
          <mxGeometry x="280" y="120" width="60" height="30" as="geometry" />
        </mxCell>
        <mxCell id="KPLfDySyqxJ-SgguWjqe-43" value="(1,1)" style="text;html=1;strokeColor=none;fillColor=none;align=center;verticalAlign=middle;whiteSpace=wrap;rounded=0;" vertex="1" parent="1">
          <mxGeometry x="320" y="365" width="60" height="30" as="geometry" />
        </mxCell>
        <mxCell id="KPLfDySyqxJ-SgguWjqe-45" value="(1,n)" style="text;html=1;strokeColor=none;fillColor=none;align=center;verticalAlign=middle;whiteSpace=wrap;rounded=0;" vertex="1" parent="1">
          <mxGeometry x="560" y="380" width="60" height="30" as="geometry" />
        </mxCell>
        <mxCell id="KPLfDySyqxJ-SgguWjqe-36" value="Departamento" style="rounded=0;whiteSpace=wrap;html=1;" vertex="1" parent="1">
          <mxGeometry x="240" y="195" width="90" height="40" as="geometry" />
        </mxCell>
        <mxCell id="KPLfDySyqxJ-SgguWjqe-47" value="Aloca" style="shape=rhombus;perimeter=rhombusPerimeter;whiteSpace=wrap;html=1;align=center;" vertex="1" parent="1">
          <mxGeometry x="435" y="195" width="90" height="50" as="geometry" />
        </mxCell>
        <mxCell id="KPLfDySyqxJ-SgguWjqe-48" value="" style="endArrow=none;html=1;rounded=0;exitX=1;exitY=0.5;exitDx=0;exitDy=0;entryX=0;entryY=0.5;entryDx=0;entryDy=0;" edge="1" parent="1" source="KPLfDySyqxJ-SgguWjqe-36" target="KPLfDySyqxJ-SgguWjqe-47">
          <mxGeometry relative="1" as="geometry">
            <mxPoint x="330" y="260" as="sourcePoint" />
            <mxPoint x="490" y="260" as="targetPoint" />
          </mxGeometry>
        </mxCell>
        <mxCell id="KPLfDySyqxJ-SgguWjqe-49" value="" style="endArrow=none;html=1;rounded=0;exitX=0.933;exitY=0.54;exitDx=0;exitDy=0;exitPerimeter=0;entryX=0;entryY=0.5;entryDx=0;entryDy=0;" edge="1" parent="1" source="KPLfDySyqxJ-SgguWjqe-47" target="KPLfDySyqxJ-SgguWjqe-4">
          <mxGeometry relative="1" as="geometry">
            <mxPoint x="330" y="260" as="sourcePoint" />
            <mxPoint x="490" y="260" as="targetPoint" />
          </mxGeometry>
        </mxCell>
        <mxCell id="KPLfDySyqxJ-SgguWjqe-50" value="(1,1)" style="text;html=1;strokeColor=none;fillColor=none;align=center;verticalAlign=middle;whiteSpace=wrap;rounded=0;" vertex="1" parent="1">
          <mxGeometry x="353.5" y="190" width="60" height="20" as="geometry" />
        </mxCell>
        <mxCell id="KPLfDySyqxJ-SgguWjqe-51" value="(1,1)" style="text;html=1;strokeColor=none;fillColor=none;align=center;verticalAlign=middle;whiteSpace=wrap;rounded=0;" vertex="1" parent="1">
          <mxGeometry x="540" y="220" width="60" height="30" as="geometry" />
        </mxCell>
        <mxCell id="KPLfDySyqxJ-SgguWjqe-56" value="Tem" style="shape=rhombus;perimeter=rhombusPerimeter;whiteSpace=wrap;html=1;align=center;" vertex="1" parent="1">
          <mxGeometry x="435" y="460" width="90" height="50" as="geometry" />
        </mxCell>
        <mxCell id="KPLfDySyqxJ-SgguWjqe-57" value="" style="endArrow=none;html=1;rounded=0;exitX=0.5;exitY=1;exitDx=0;exitDy=0;entryX=0.5;entryY=0;entryDx=0;entryDy=0;" edge="1" parent="1" source="KPLfDySyqxJ-SgguWjqe-56" target="KPLfDySyqxJ-SgguWjqe-40">
          <mxGeometry relative="1" as="geometry">
            <mxPoint x="330" y="400" as="sourcePoint" />
            <mxPoint x="490" y="400" as="targetPoint" />
          </mxGeometry>
        </mxCell>
        <mxCell id="KPLfDySyqxJ-SgguWjqe-58" value="" style="endArrow=none;html=1;rounded=0;exitX=0.5;exitY=0;exitDx=0;exitDy=0;entryX=0.5;entryY=1;entryDx=0;entryDy=0;" edge="1" parent="1" source="KPLfDySyqxJ-SgguWjqe-56" target="KPLfDySyqxJ-SgguWjqe-5">
          <mxGeometry relative="1" as="geometry">
            <mxPoint x="330" y="400" as="sourcePoint" />
            <mxPoint x="490" y="400" as="targetPoint" />
          </mxGeometry>
        </mxCell>
        <mxCell id="KPLfDySyqxJ-SgguWjqe-59" value="" style="endArrow=none;html=1;rounded=0;exitX=0.5;exitY=1;exitDx=0;exitDy=0;entryX=0;entryY=0.5;entryDx=0;entryDy=0;" edge="1" parent="1" source="KPLfDySyqxJ-SgguWjqe-6" target="KPLfDySyqxJ-SgguWjqe-56">
          <mxGeometry relative="1" as="geometry">
            <mxPoint x="90" y="240" as="sourcePoint" />
            <mxPoint x="430" y="480" as="targetPoint" />
            <Array as="points">
              <mxPoint x="90" y="490" />
            </Array>
          </mxGeometry>
        </mxCell>
        <mxCell id="KPLfDySyqxJ-SgguWjqe-60" value="" style="endArrow=none;html=1;rounded=0;exitX=1;exitY=0.5;exitDx=0;exitDy=0;entryX=1;entryY=0.5;entryDx=0;entryDy=0;" edge="1" parent="1" source="KPLfDySyqxJ-SgguWjqe-56" target="KPLfDySyqxJ-SgguWjqe-7">
          <mxGeometry relative="1" as="geometry">
            <mxPoint x="330" y="380" as="sourcePoint" />
            <mxPoint x="760" y="90" as="targetPoint" />
            <Array as="points">
              <mxPoint x="770" y="485" />
              <mxPoint x="780" y="80" />
            </Array>
          </mxGeometry>
        </mxCell>
        <mxCell id="KPLfDySyqxJ-SgguWjqe-62" value="(1,n)" style="text;html=1;strokeColor=none;fillColor=none;align=center;verticalAlign=middle;whiteSpace=wrap;rounded=0;" vertex="1" parent="1">
          <mxGeometry x="190" y="460" width="60" height="30" as="geometry" />
        </mxCell>
        <mxCell id="KPLfDySyqxJ-SgguWjqe-63" value="(1,n)" style="text;html=1;strokeColor=none;fillColor=none;align=center;verticalAlign=middle;whiteSpace=wrap;rounded=0;" vertex="1" parent="1">
          <mxGeometry x="700" y="450" width="60" height="30" as="geometry" />
        </mxCell>
        <mxCell id="KPLfDySyqxJ-SgguWjqe-64" value="(1,n)" style="text;html=1;strokeColor=none;fillColor=none;align=center;verticalAlign=middle;whiteSpace=wrap;rounded=0;" vertex="1" parent="1">
          <mxGeometry x="470" y="400" width="60" height="30" as="geometry" />
        </mxCell>
        <mxCell id="KPLfDySyqxJ-SgguWjqe-65" value="(n,n)" style="text;html=1;strokeColor=none;fillColor=none;align=center;verticalAlign=middle;whiteSpace=wrap;rounded=0;" vertex="1" parent="1">
          <mxGeometry x="480" y="530" width="60" height="30" as="geometry" />
        </mxCell>
        <mxCell id="KPLfDySyqxJ-SgguWjqe-66" value="Departamentos" style="rounded=0;whiteSpace=wrap;html=1;" vertex="1" parent="1">
          <mxGeometry x="400" y="720" width="120" height="30" as="geometry" />
        </mxCell>
        <mxCell id="KPLfDySyqxJ-SgguWjqe-69" value="Orientador" style="rounded=0;whiteSpace=wrap;html=1;" vertex="1" parent="1">
          <mxGeometry x="60" y="720" width="120" height="30" as="geometry" />
        </mxCell>
        <mxCell id="KPLfDySyqxJ-SgguWjqe-70" value="Aluno Graduação" style="rounded=0;whiteSpace=wrap;html=1;" vertex="1" parent="1">
          <mxGeometry x="130" y="990" width="120" height="30" as="geometry" />
        </mxCell>
        <mxCell id="KPLfDySyqxJ-SgguWjqe-71" value="Aluno Pós-graduação" style="rounded=0;whiteSpace=wrap;html=1;" vertex="1" parent="1">
          <mxGeometry x="585" y="990" width="120" height="30" as="geometry" />
        </mxCell>
        <mxCell id="KPLfDySyqxJ-SgguWjqe-72" value="Oferece" style="rhombus;whiteSpace=wrap;html=1;" vertex="1" parent="1">
          <mxGeometry x="414" y="790" width="90" height="50" as="geometry" />
        </mxCell>
        <mxCell id="KPLfDySyqxJ-SgguWjqe-73" value="" style="endArrow=none;html=1;rounded=0;exitX=0.5;exitY=0;exitDx=0;exitDy=0;entryX=0.5;entryY=1;entryDx=0;entryDy=0;" edge="1" parent="1" source="KPLfDySyqxJ-SgguWjqe-72" target="KPLfDySyqxJ-SgguWjqe-66">
          <mxGeometry relative="1" as="geometry">
            <mxPoint x="350" y="890" as="sourcePoint" />
            <mxPoint x="510" y="890" as="targetPoint" />
          </mxGeometry>
        </mxCell>
        <mxCell id="KPLfDySyqxJ-SgguWjqe-74" value="" style="endArrow=none;html=1;rounded=0;exitX=0.5;exitY=0;exitDx=0;exitDy=0;entryX=0.5;entryY=1;entryDx=0;entryDy=0;" edge="1" parent="1" source="KPLfDySyqxJ-SgguWjqe-81" target="KPLfDySyqxJ-SgguWjqe-72">
          <mxGeometry relative="1" as="geometry">
            <mxPoint x="410" y="870" as="sourcePoint" />
            <mxPoint x="420" y="760" as="targetPoint" />
            <Array as="points" />
          </mxGeometry>
        </mxCell>
        <mxCell id="KPLfDySyqxJ-SgguWjqe-75" value="(1,n)" style="text;html=1;strokeColor=none;fillColor=none;align=center;verticalAlign=middle;whiteSpace=wrap;rounded=0;" vertex="1" parent="1">
          <mxGeometry x="170" y="700" width="60" height="30" as="geometry" />
        </mxCell>
        <mxCell id="KPLfDySyqxJ-SgguWjqe-76" value="(1,1)" style="text;html=1;strokeColor=none;fillColor=none;align=center;verticalAlign=middle;whiteSpace=wrap;rounded=0;" vertex="1" parent="1">
          <mxGeometry x="300" y="700" width="60" height="30" as="geometry" />
        </mxCell>
        <mxCell id="KPLfDySyqxJ-SgguWjqe-78" value="Alocado" style="rhombus;whiteSpace=wrap;html=1;" vertex="1" parent="1">
          <mxGeometry x="220" y="710" width="90" height="50" as="geometry" />
        </mxCell>
        <mxCell id="KPLfDySyqxJ-SgguWjqe-81" value="Disciplina" style="shape=ext;margin=3;double=1;whiteSpace=wrap;html=1;align=center;" vertex="1" parent="1">
          <mxGeometry x="409" y="875" width="100" height="40" as="geometry" />
        </mxCell>
        <mxCell id="KPLfDySyqxJ-SgguWjqe-82" value="" style="endArrow=none;html=1;rounded=0;exitX=1;exitY=0.5;exitDx=0;exitDy=0;entryX=0;entryY=0.5;entryDx=0;entryDy=0;" edge="1" parent="1" source="KPLfDySyqxJ-SgguWjqe-78" target="KPLfDySyqxJ-SgguWjqe-66">
          <mxGeometry relative="1" as="geometry">
            <mxPoint x="300" y="740" as="sourcePoint" />
            <mxPoint x="510" y="890" as="targetPoint" />
          </mxGeometry>
        </mxCell>
        <mxCell id="KPLfDySyqxJ-SgguWjqe-83" value="" style="endArrow=none;html=1;rounded=0;exitX=1;exitY=0.5;exitDx=0;exitDy=0;entryX=0;entryY=0.5;entryDx=0;entryDy=0;" edge="1" parent="1" source="KPLfDySyqxJ-SgguWjqe-69" target="KPLfDySyqxJ-SgguWjqe-78">
          <mxGeometry relative="1" as="geometry">
            <mxPoint x="350" y="890" as="sourcePoint" />
            <mxPoint x="510" y="890" as="targetPoint" />
          </mxGeometry>
        </mxCell>
        <mxCell id="KPLfDySyqxJ-SgguWjqe-85" value="Ministrar" style="rhombus;whiteSpace=wrap;html=1;" vertex="1" parent="1">
          <mxGeometry x="75" y="870" width="90" height="50" as="geometry" />
        </mxCell>
        <mxCell id="KPLfDySyqxJ-SgguWjqe-86" value="" style="endArrow=none;html=1;rounded=0;exitX=0.5;exitY=1;exitDx=0;exitDy=0;entryX=0.5;entryY=0;entryDx=0;entryDy=0;" edge="1" parent="1" source="KPLfDySyqxJ-SgguWjqe-69" target="KPLfDySyqxJ-SgguWjqe-85">
          <mxGeometry relative="1" as="geometry">
            <mxPoint x="350" y="890" as="sourcePoint" />
            <mxPoint x="510" y="890" as="targetPoint" />
          </mxGeometry>
        </mxCell>
        <mxCell id="KPLfDySyqxJ-SgguWjqe-87" value="" style="endArrow=none;html=1;rounded=0;exitX=1;exitY=0.5;exitDx=0;exitDy=0;entryX=0;entryY=0.5;entryDx=0;entryDy=0;" edge="1" parent="1" source="KPLfDySyqxJ-SgguWjqe-85" target="KPLfDySyqxJ-SgguWjqe-81">
          <mxGeometry relative="1" as="geometry">
            <mxPoint x="350" y="890" as="sourcePoint" />
            <mxPoint x="510" y="890" as="targetPoint" />
          </mxGeometry>
        </mxCell>
        <mxCell id="KPLfDySyqxJ-SgguWjqe-88" value="(1,1)" style="text;html=1;strokeColor=none;fillColor=none;align=center;verticalAlign=middle;whiteSpace=wrap;rounded=0;" vertex="1" parent="1">
          <mxGeometry x="409" y="760" width="60" height="30" as="geometry" />
        </mxCell>
        <mxCell id="KPLfDySyqxJ-SgguWjqe-89" value="(1,1)" style="text;html=1;strokeColor=none;fillColor=none;align=center;verticalAlign=middle;whiteSpace=wrap;rounded=0;" vertex="1" parent="1">
          <mxGeometry x="110" y="790" width="60" height="30" as="geometry" />
        </mxCell>
        <mxCell id="KPLfDySyqxJ-SgguWjqe-91" value="(1,n)" style="text;html=1;strokeColor=none;fillColor=none;align=center;verticalAlign=middle;whiteSpace=wrap;rounded=0;" vertex="1" parent="1">
          <mxGeometry x="293.5" y="860" width="60" height="30" as="geometry" />
        </mxCell>
        <mxCell id="KPLfDySyqxJ-SgguWjqe-92" value="Cursa" style="rhombus;whiteSpace=wrap;html=1;" vertex="1" parent="1">
          <mxGeometry x="414" y="980" width="90" height="50" as="geometry" />
        </mxCell>
        <mxCell id="KPLfDySyqxJ-SgguWjqe-94" value="" style="endArrow=none;html=1;rounded=0;exitX=0.5;exitY=1;exitDx=0;exitDy=0;entryX=0.5;entryY=0;entryDx=0;entryDy=0;" edge="1" parent="1" source="KPLfDySyqxJ-SgguWjqe-81" target="KPLfDySyqxJ-SgguWjqe-92">
          <mxGeometry relative="1" as="geometry">
            <mxPoint x="350" y="890" as="sourcePoint" />
            <mxPoint x="510" y="890" as="targetPoint" />
          </mxGeometry>
        </mxCell>
        <mxCell id="KPLfDySyqxJ-SgguWjqe-99" value="" style="endArrow=none;html=1;rounded=0;exitX=1;exitY=0.5;exitDx=0;exitDy=0;entryX=0;entryY=0.5;entryDx=0;entryDy=0;" edge="1" parent="1" source="KPLfDySyqxJ-SgguWjqe-92" target="KPLfDySyqxJ-SgguWjqe-71">
          <mxGeometry relative="1" as="geometry">
            <mxPoint x="350" y="890" as="sourcePoint" />
            <mxPoint x="510" y="890" as="targetPoint" />
          </mxGeometry>
        </mxCell>
        <mxCell id="KPLfDySyqxJ-SgguWjqe-100" value="" style="endArrow=none;html=1;rounded=0;entryX=0;entryY=0.5;entryDx=0;entryDy=0;exitX=1;exitY=0.5;exitDx=0;exitDy=0;" edge="1" parent="1" source="KPLfDySyqxJ-SgguWjqe-70" target="KPLfDySyqxJ-SgguWjqe-92">
          <mxGeometry relative="1" as="geometry">
            <mxPoint x="350" y="890" as="sourcePoint" />
            <mxPoint x="510" y="890" as="targetPoint" />
          </mxGeometry>
        </mxCell>
        <mxCell id="KPLfDySyqxJ-SgguWjqe-102" value="Orientar" style="rhombus;whiteSpace=wrap;html=1;" vertex="1" parent="1">
          <mxGeometry x="600" y="670" width="90" height="50" as="geometry" />
        </mxCell>
        <mxCell id="KPLfDySyqxJ-SgguWjqe-103" value="" style="endArrow=none;html=1;rounded=0;entryX=0;entryY=0.5;entryDx=0;entryDy=0;exitX=0.5;exitY=0;exitDx=0;exitDy=0;" edge="1" parent="1" source="KPLfDySyqxJ-SgguWjqe-69" target="KPLfDySyqxJ-SgguWjqe-102">
          <mxGeometry relative="1" as="geometry">
            <mxPoint x="160" y="710" as="sourcePoint" />
            <mxPoint x="530" y="680" as="targetPoint" />
            <Array as="points">
              <mxPoint x="120" y="690" />
            </Array>
          </mxGeometry>
        </mxCell>
        <mxCell id="KPLfDySyqxJ-SgguWjqe-106" value="" style="endArrow=none;html=1;rounded=0;exitX=0.5;exitY=1;exitDx=0;exitDy=0;entryX=0.5;entryY=0;entryDx=0;entryDy=0;" edge="1" parent="1" source="KPLfDySyqxJ-SgguWjqe-102" target="KPLfDySyqxJ-SgguWjqe-71">
          <mxGeometry relative="1" as="geometry">
            <mxPoint x="350" y="870" as="sourcePoint" />
            <mxPoint x="510" y="870" as="targetPoint" />
          </mxGeometry>
        </mxCell>
        <mxCell id="KPLfDySyqxJ-SgguWjqe-107" value="(1,1)" style="text;html=1;strokeColor=none;fillColor=none;align=center;verticalAlign=middle;whiteSpace=wrap;rounded=0;" vertex="1" parent="1">
          <mxGeometry x="520" y="660" width="60" height="30" as="geometry" />
        </mxCell>
        <mxCell id="KPLfDySyqxJ-SgguWjqe-109" value="(1,n)" style="text;html=1;strokeColor=none;fillColor=none;align=center;verticalAlign=middle;whiteSpace=wrap;rounded=0;" vertex="1" parent="1">
          <mxGeometry x="640" y="750" width="60" height="30" as="geometry" />
        </mxCell>
        <mxCell id="KPLfDySyqxJ-SgguWjqe-110" value="(1,1)" style="text;html=1;strokeColor=none;fillColor=none;align=center;verticalAlign=middle;whiteSpace=wrap;rounded=0;" vertex="1" parent="1">
          <mxGeometry x="280" y="960" width="60" height="30" as="geometry" />
        </mxCell>
        <mxCell id="KPLfDySyqxJ-SgguWjqe-113" value="(1,n)" style="text;html=1;strokeColor=none;fillColor=none;align=center;verticalAlign=middle;whiteSpace=wrap;rounded=0;" vertex="1" parent="1">
          <mxGeometry x="400" y="930" width="60" height="30" as="geometry" />
        </mxCell>
        <mxCell id="KPLfDySyqxJ-SgguWjqe-115" value="(1,1)" style="text;html=1;strokeColor=none;fillColor=none;align=center;verticalAlign=middle;whiteSpace=wrap;rounded=0;" vertex="1" parent="1">
          <mxGeometry x="520" y="970" width="60" height="30" as="geometry" />
        </mxCell>
        <mxCell id="KPLfDySyqxJ-SgguWjqe-116" value="(1,n)" style="text;html=1;strokeColor=none;fillColor=none;align=center;verticalAlign=middle;whiteSpace=wrap;rounded=0;" vertex="1" parent="1">
          <mxGeometry x="400" y="840" width="60" height="30" as="geometry" />
        </mxCell>
      </root>
    </mxGraphModel>
  </diagram>
</mxfile>
